<svg width="754" height="847" viewBox="0 0 754 847" fill="none" xmlns="http://www.w3.org/2000/svg">
<path d="M8.71699 43.9487C8.71699 19.6765 31.4908 0 59.5837 0H427.678C470.106 0 512.114 7.25901 551.279 21.3582L558.163 23.8365C614.397 44.0808 662.087 78.7467 694.794 123.153C720.273 157.746 735.808 197.101 740.106 237.936L741.256 248.864C744.572 280.384 740.304 312.152 728.719 342.178L705.58 402.155C699.112 418.919 701.216 437.268 711.364 452.61L714.685 457.631C735.508 489.116 748.25 524.099 752.049 560.212C756.574 603.211 745.498 646.686 720.705 684.172C679.76 746.078 616.23 795.285 540.38 823.37L530.047 827.196C496.521 839.612 460.426 846.013 423.949 846.013H390.723C357.769 846.013 326.1 834.96 302.393 815.183L23.2404 582.312C-6.19491 557.758 -7.79314 517.338 19.3903 490.916C48.1643 462.947 98.2767 461.068 129.496 487.004L368.637 685.675C390.642 703.955 419.984 714.167 450.512 714.167C477.336 714.167 503.362 706.28 524.307 691.801L542.926 678.931C551.299 673.145 558.789 666.469 565.221 659.059L573.337 649.709C586.545 634.494 593.684 615.987 593.684 596.971V588.579C593.684 563.216 583.528 538.633 564.939 519.004L529.152 481.214C499.769 450.184 498.41 405.906 525.853 373.575L557.235 336.601C593.59 293.766 591.484 235.042 552.126 194.237C513.996 154.704 457.514 131.846 397.951 131.846H178.6C162.032 131.846 148.6 145.278 148.6 161.846V244.88C148.6 256.796 153.912 268.091 163.09 275.69L401.682 473.244C430.778 497.335 432.614 536.99 405.843 563.012C376.837 591.207 326.189 592.095 295.882 564.941L25.3511 322.545C14.7657 313.061 8.71699 299.519 8.71699 285.307V43.9487Z" fill="#FB3640"/>
</svg>
